Coordinates
version=1
nRows=27
nColumns=12
inDegrees=yes

Units are S.I. units (second, meters, Newtons, ...)
Angles are in degrees

endheader
time	SC_y	SC_z	SC_x	AC_y	AC_z	AC_x	GH_y	GH_z	GH_yy	EL_x	PS_y
       0.0               -13.5           27.7         0.5215          31.95          3.119          7.304          70.16           59.2          21.63          64.98          141.9
   0.04773              -13.51           27.7         0.5327          31.95          3.118          7.302          70.14          59.19          21.63          64.98          141.8
   0.09545              -13.51           27.7         0.5447          31.95          3.117          7.299          70.12          59.18          21.64          64.97          141.8
    0.1432              -13.52          27.69         0.5573          31.96          3.116          7.297           70.1          59.17          21.64          64.97          141.8
    0.1909              -13.52          27.69         0.5708          31.96          3.115          7.294          70.08          59.16          21.65          64.96          141.8
    0.2386              -13.53          27.68         0.5852          31.96          3.114          7.292          70.06          59.15          21.66          64.95          141.8
    0.2864              -13.53          27.68         0.6006          31.97          3.113          7.289          70.04          59.14          21.66          64.95          141.8
    0.3341              -13.54          27.67          0.617          31.97          3.112          7.285          70.01          59.13          21.67          64.94          141.8
    0.3818              -13.55          27.67         0.6346          31.98           3.11          7.282          69.99          59.11          21.68          64.93          141.7
    0.4295              -13.56          27.66         0.6535          31.98          3.109          7.279          69.96           59.1          21.69          64.93          141.7
    0.4773              -13.57          27.66         0.6738          31.99          3.107          7.275          69.93          59.09          21.69          64.92          141.7
     0.525              -13.58          27.65         0.6956          31.99          3.106           7.27          69.89          59.07           21.7          64.91          141.7
    0.5727              -13.59          27.65         0.7191           32.0          3.104          7.266          69.86          59.05          21.71           64.9          141.7
    0.6204               -13.6          27.64         0.7445          32.01          3.102          7.261          69.82          59.03          21.72          64.89          141.6
    0.6682              -13.61          27.63          0.772          32.02            3.1          7.256          69.78          59.01          21.74          64.88          141.6
    0.7159              -13.62          27.62         0.8018          32.02          3.097           7.25          69.73          58.99          21.75          64.86          141.6
    0.7636              -13.64          27.61         0.8342          32.03          3.095          7.244          69.68          58.97          21.76          64.85          141.5
    0.8114              -13.65           27.6         0.8695          32.04          3.092          7.237          69.63          58.94          21.78          64.84          141.5
    0.8591              -13.67          27.59         0.9081          32.05          3.089           7.23          69.57          58.91          21.79          64.82          141.4
    0.9068              -13.69          27.58         0.9503          32.07          3.086          7.222          69.51          58.88          21.81           64.8          141.4
    0.9545              -13.71          27.57         0.9966          32.08          3.083          7.213          69.44          58.85          21.83          64.78          141.4
     1.002              -13.73          27.55          1.048          32.09          3.079          7.203          69.36          58.81          21.85          64.76          141.3
      1.05              -13.75          27.54          1.104          32.11          3.075          7.192          69.28          58.77          21.88          64.74          141.2
     1.098              -13.78          27.52          1.166          32.13           3.07           7.18          69.18          58.72           21.9          64.71          141.2
     1.145              -13.81           27.5          1.236          32.15          3.065          7.167          69.08          58.67          21.93          64.68          141.1
     1.193              -13.84          27.48          1.313          32.17          3.059          7.152          68.96          58.62          21.97          64.65          141.0
     1.241              -13.88          27.45            1.4          32.19          3.052          7.136          68.83          58.55           22.0          64.61          140.9
